<svg width="2560" height="1237" viewBox="0 0 2560 1237" fill="none" xmlns="http://www.w3.org/2000/svg">
<path d="M0 0.59375H2560V1236.65C2560 1236.65 1774 1115.34 1280 1115.34C786 1115.34 0 1236.65 0 1236.65V0.59375Z" fill="#07325F"/>
<mask id="mask0_303_118" style="mask-type:alpha" maskUnits="userSpaceOnUse" x="0" y="1" width="2560" height="1236">
<path d="M0 1H2560V1237C2560 1237 1774 1137.71 1280 1137.71C786 1137.71 0 1237 0 1237V1Z" fill="#07325F"/>
</mask>
<g mask="url(#mask0_303_118)">
<path d="M2153.96 656.703L2001.28 872.894L1697.84 980.482H1697.35L1545.15 1196.17L1241.71 1303.75H1241.23L1089.02 1519.44L884.801 1592.01H891.063L1090.95 1520.96H1091.43L1243.64 1305.28L1547.08 1197.69H1547.56L1699.76 982.005L2003.21 874.417H2003.69L2155.89 658.733L2459.33 551.145H2459.82L2560 409.048V404.481L2457.89 549.115L2153.96 656.703ZM2115.91 629.806L1963.71 845.49L1660.27 953.078H1659.79L1507.58 1168.76L1204.14 1276.35H1203.66L1051.45 1492.03L771.131 1591.5H777.392L1052.9 1493.55H1053.38L1205.58 1277.87L1509.03 1170.28H1509.51L1661.71 954.6L1965.16 847.012H1965.64L2117.84 631.329L2421.28 523.741H2421.76L2560 327.85V323.282L2419.84 522.218L2115.91 629.806ZM2267.15 90.8517L2114.95 306.535L1811.51 414.123H1811.03L1659.3 630.314L1355.86 737.902H1355.38L1203.18 953.585L899.733 1061.17H899.251L747.048 1276.86L443.605 1384.44H443.123L297.182 1591.5H300.072L445.05 1385.46L748.493 1277.87H748.975L901.178 1062.19L1204.62 954.6H1205.1L1357.31 738.917L1660.75 631.329H1661.23L1813.43 415.645L2116.88 308.058H2117.36L2269.56 92.3741L2559.52 -10.6464V-12.6764L2267.15 90.8517ZM2305.2 117.749L2153 333.432L1849.56 441.02H1849.08L1696.87 656.703L1393.43 764.291H1392.95L1240.75 979.975L937.302 1087.56H936.82L784.617 1303.25L481.174 1410.83H480.692L354.017 1592.52H356.907L483.101 1413.88L786.544 1306.29H787.025L939.229 1090.61L1242.67 983.02H1243.15L1395.36 767.336L1698.8 659.748H1699.28L1851.48 444.065L2154.93 336.477H2155.41L2307.61 120.794L2559.52 31.4753V29.4453L2305.2 117.749ZM2495.46 899.791L2343.25 1115.47L2039.81 1223.06H2039.33L1887.13 1438.75L1583.68 1546.33H1583.2L1550.93 1592.01H1553.82L1584.65 1547.86L1888.09 1440.27H1888.57L2040.78 1224.59L2344.22 1117H2344.7L2496.9 901.314L2559.04 879.492V877.462L2495.46 899.791ZM2533.51 926.688L2381.31 1142.37L2077.86 1249.96H2077.38L1925.18 1465.64L1621.73 1573.23H1621.25L1608.25 1591.5H1611.14L1623.18 1574.25L1926.62 1466.66H1927.1L2079.31 1250.97L2382.75 1143.39H2383.23L2535.44 927.703L2559.52 919.076V917.046L2533.51 926.688ZM2229.58 711.005L2077.38 926.688L1773.94 1034.28H1773.46L1621.25 1249.96L1317.81 1357.55H1317.33L1165.13 1573.23L1113.11 1591.5H1119.37L1167.05 1574.75H1167.53L1319.74 1359.07L1623.18 1251.48H1623.66L1775.86 1035.8L2079.31 928.211H2079.79L2231.99 712.527L2535.44 604.939H2535.92L2560 570.937V566.37L2533.99 603.417L2229.58 711.005ZM2191.53 684.108L2039.33 899.791L1735.89 1007.38H1735.41L1583.2 1223.57L1279.76 1331.16H1279.28L1127.07 1546.84L998.954 1592.52H1005.22L1129 1548.87H1129.48L1281.69 1333.19L1585.13 1225.6H1585.61L1737.81 1009.92L2041.26 902.329H2041.74L2193.94 686.645L2497.38 579.057H2497.87L2560 491.261V486.694L2495.94 577.535L2191.53 684.108ZM2457.41 225.844L2305.2 441.527L2001.76 549.115H2001.28L1849.08 764.799L1545.63 872.387H1545.15L1392.95 1088.07L1089.51 1195.66H1089.02L936.82 1411.34L633.377 1518.93H632.896L581.84 1591.5H584.73L634.822 1520.45L938.265 1412.86H938.747L1090.95 1197.18L1394.39 1089.59H1394.87L1547.08 873.909L1850.52 766.321H1851L2003.21 550.638L2306.65 443.05H2307.13L2459.33 227.367L2559.52 191.842V189.812L2457.41 225.844ZM2533.51 279.638L2381.31 495.321L2077.86 602.909H2077.38L1925.18 818.593L1621.73 926.181H1621.25L1469.05 1142.37L1165.61 1249.96H1165.13L1012.92 1465.64L709.479 1573.23H708.997L695.992 1591.5H698.882L710.924 1574.25L1014.37 1466.66H1014.85L1167.05 1250.97L1470.49 1143.39H1470.98L1623.18 927.703L1926.62 820.115H1927.1L2079.31 604.432L2382.75 496.844H2383.23L2535.44 281.161L2559.52 272.533V270.503L2533.51 279.638ZM2495.46 252.741L2343.25 468.424L2039.81 576.012H2039.33L1887.13 791.696L1583.68 899.284H1583.2L1431 1114.97L1127.56 1222.55H1127.07L974.871 1438.24L671.428 1545.83H670.946L638.675 1591.5H641.565L672.391 1547.35L975.834 1439.76H976.316L1128.52 1224.08L1431.96 1116.49H1432.44L1584.65 900.806L1888.09 793.218H1888.57L2040.78 577.535L2344.22 469.947H2344.7L2496.9 254.264L2559.04 232.441V230.412L2495.46 252.741ZM2343.25 144.646L2191.05 360.329L1887.61 467.917H1887.13L1734.92 683.6L1431.48 791.188H1431L1278.8 1006.87L975.353 1114.46H974.871L822.668 1330.14L519.225 1437.73H518.743L410.852 1590.99H413.742L520.67 1439.25L824.113 1331.67H824.595L976.798 1115.98L1280.24 1008.39H1280.72L1432.93 792.711L1736.37 685.123H1736.85L1889.05 469.439L2192.5 361.851H2192.98L2345.18 146.168L2559.04 70.0445V68.0146L2343.25 144.646ZM2229.58 63.4472L2077.38 279.638L1773.94 387.226H1773.46L1621.25 602.909L1317.33 711.005H1316.85L1164.64 926.688L861.2 1034.28H860.719L708.516 1249.96L405.072 1357.55H404.591L252.869 1574.25L200.85 1592.52H207.112L254.796 1575.77H255.278L407.481 1360.08L710.924 1252.5H711.405L863.609 1036.81L1167.05 929.226H1167.53L1319.74 713.542L1623.18 605.954H1623.66L1775.86 390.271L2079.31 282.683H2079.79L2231.99 66.9996L2535.44 -40.5883H2535.92L2560 -74.5902V-79.1576L2533.99 -42.1108L2229.58 63.4472ZM2381.31 171.543L2229.1 387.226L1925.66 494.814H1925.18L1773.46 711.005L1470.01 818.593H1469.53L1317.33 1034.78L1013.89 1142.37H1013.4L861.2 1358.05L557.757 1465.64H557.276L468.169 1592.01H471.059L559.202 1467.17L862.645 1359.58H863.127L1015.33 1143.89L1318.77 1036.31H1319.25L1471.46 820.623L1774.9 713.035H1775.38L1927.59 497.351L2231.03 389.763H2231.51L2383.71 174.08L2560 111.659V109.629L2381.31 171.543ZM2457.41 872.894L2305.2 1088.58L2001.76 1196.17H2001.28L1849.08 1411.85L1545.63 1519.44H1545.15L1494.1 1592.01H1496.99L1547.08 1520.96L1850.52 1413.37H1851L2003.21 1197.69L2306.65 1090.1H2307.13L2459.33 874.417L2559.52 838.892V836.862L2457.41 872.894ZM2495.46 -71.0377L2192.02 36.5502H2191.53L2039.33 252.234L1735.89 359.822H1735.41L1583.2 575.505L1279.76 683.093H1279.28L1127.07 898.776L823.631 1006.36H823.15L670.946 1223.57L367.503 1331.16H367.022L214.818 1546.84L86.698 1592.52H92.9595L216.745 1548.87H217.227L369.43 1333.19L672.873 1225.6H673.355L825.558 1009.92L1129 902.329H1129.48L1281.69 686.645L1585.13 579.057H1585.61L1737.81 363.374L2041.26 255.786H2041.74L2193.94 40.1026L2497.38 -67.4853H2497.87L2560 -155.281V-161.879L2495.46 -71.0377ZM2419.36 198.44L2267.15 414.123L1963.71 521.711H1963.23L1811.03 737.394L1507.58 844.982H1507.1L1354.9 1060.67L1051.45 1168.25H1050.97L898.77 1383.94L595.326 1491.52H594.845L525.005 1590.99H527.895L596.771 1493.05L900.214 1385.46H900.696L1052.9 1169.78L1356.34 1062.19H1356.82L1509.03 846.505L1812.47 738.917H1812.95L1965.16 523.233L2268.6 415.645H2269.08L2421.28 199.962L2559.52 150.736V148.706L2419.36 198.44ZM2343.25 1439.25L2235.36 1592.52H2238.25L2345.18 1440.78L2559.04 1364.65V1362.62L2343.25 1439.25ZM2381.31 1466.15L2292.2 1592.52H2295.09L2383.23 1467.67L2559.52 1405.25V1403.22L2381.31 1466.15ZM2267.15 1385.46L2121.21 1592.52H2124.1L2269.08 1386.47L2559.04 1283.45V1281.42L2267.15 1385.46ZM2419.36 1493.05L2349.52 1592.52H2352.41L2421.28 1494.57L2559.52 1445.34V1443.31L2419.36 1493.05ZM2229.58 1358.05L2077.38 1573.74L2025.36 1592.01H2031.62L2079.31 1575.26H2079.79L2231.99 1359.58L2535.44 1251.99H2535.92L2560 1217.99V1213.42L2533.99 1250.47L2229.58 1358.05ZM2533.51 1574.25L2520.5 1592.52H2523.39L2535.44 1575.26L2559.52 1566.63V1564.6L2533.51 1574.25ZM2495.46 1546.84L2463.19 1592.52H2466.08L2496.9 1548.36L2559.04 1526.54V1524.51L2495.46 1546.84ZM2419.36 845.997L2267.15 1061.68L1963.71 1169.27H1963.23L1811.03 1384.95L1507.58 1492.54H1507.1L1437.26 1592.01H1440.15L1509.03 1494.06L1812.47 1386.47H1812.95L1965.16 1170.79L2268.6 1063.2H2269.08L2421.28 847.52L2559.52 798.293V796.263L2419.36 845.997ZM2457.41 1519.94L2406.35 1592.52H2409.24L2459.33 1521.47L2559.52 1485.94V1483.91L2457.41 1519.94ZM2191.53 1331.16L2039.33 1546.84L1911.21 1592.52H1917.47L2041.26 1548.87H2041.74L2193.94 1333.19L2497.38 1225.6H2497.87L2560 1137.8V1133.24L2495.46 1223.57L2191.53 1331.16ZM2305.2 764.799L2153 980.482L1849.56 1088.07H1849.08L1696.87 1303.75L1393.43 1411.34H1392.95L1265.79 1591.5H1268.68L1394.87 1412.86L1698.32 1305.28H1698.8L1851 1089.59L2154.45 982.005H2154.93L2307.13 766.321L2559.04 677.003V674.973L2305.2 764.799ZM2381.31 819.1L2229.1 1034.78L1925.66 1142.37H1925.18L1772.97 1358.05L1469.53 1465.64H1469.05L1379.94 1592.52H1382.83L1470.98 1467.67L1774.42 1360.08H1774.9L1927.1 1144.4L2230.55 1036.81H2231.03L2383.23 821.13L2559.52 758.709V756.679L2381.31 819.1ZM2343.25 791.696L2191.05 1007.38L1887.61 1114.97H1887.13L1734.92 1330.65L1431.48 1438.24H1431L1323.11 1591.5H1326L1432.93 1439.76L1736.37 1332.17H1736.85L1889.05 1116.49L2192.5 1008.9H2192.98L2345.18 793.218L2559.04 717.095V715.065L2343.25 791.696ZM2267.15 737.902L2114.95 953.585L1811.51 1061.17H1811.03L1659.3 1277.36L1355.86 1384.95H1355.38L1209.44 1592.01H1212.33L1357.31 1385.97L1660.75 1278.38H1661.23L1813.43 1062.7L2116.88 955.108H2117.36L2269.56 739.424L2559.52 636.404V634.374L2267.15 737.902ZM2153.96 1304.26L2001.28 1519.94L1797.06 1592.52H1803.32L2003.21 1521.47H2003.69L2155.89 1305.78L2459.33 1198.2H2459.82L2560 1056.1V1051.53L2457.89 1196.17L2153.96 1304.26ZM2115.91 1277.36L1963.71 1493.05L1683.39 1592.52H1689.65L1965.16 1494.57H1965.64L2117.84 1278.89L2421.28 1171.3H2421.76L2560 975.407V970.84L2419.84 1169.78L2115.91 1277.36ZM2305.2 1412.36L2178.05 1592.52H2180.94L2307.13 1413.88L2559.04 1324.56V1322.53L2305.2 1412.36ZM179.176 550.638L482.619 443.05H483.101L635.304 227.367L938.747 119.779H939.229L1090.95 -96.4123L1394.39 -204H1394.87L1407.88 -222.27H1404.99L1392.95 -205.015L1089.51 -97.4272H1089.02L936.82 118.256L633.377 225.844H632.896L480.692 441.527L177.249 549.115H176.768L24.5644 764.799L0.481648 773.426V775.456L26.4911 766.321L179.176 550.638ZM103.074 820.115L254.796 604.432L558.239 496.844H558.721L710.924 281.161L1014.37 173.573H1014.85L1167.05 -42.1108L1470.49 -149.699H1470.98L1522.03 -222.777H1519.14L1469.05 -151.729L1165.61 -44.1408H1165.13L1012.92 171.543L709.479 279.131H708.997L556.794 494.814L253.351 602.402H252.869L100.666 818.085L0.481648 853.61V855.64L103.074 820.115ZM368.467 1009.41L520.67 793.726L824.113 686.138H824.595L976.798 470.454L1280.24 362.866H1280.72L1432.93 147.183L1736.37 39.5951H1736.85L1889.05 -176.088L2017.17 -221.762H2010.91L1887.13 -178.118H1886.65L1734.44 37.5652L1431 145.153H1430.52L1278.31 360.837L974.871 468.424H974.389L822.186 684.108L518.743 791.696H518.262L366.058 1007.38L62.6152 1114.97H62.1336L0 1202.76V1207.33L65.0235 1117L368.467 1009.41ZM330.416 982.512L482.619 766.829L786.062 659.241H786.544L938.747 443.557L1242.19 335.97H1242.67L1394.87 120.286L1698.32 12.6982H1698.8L1851 -202.985L1903.02 -221.255H1896.76L1849.08 -204.508H1848.59L1696.39 11.1757L1392.95 118.764H1392.47L1240.26 334.447L936.82 442.035H936.339L784.135 657.718L480.692 765.306H480.211L328.008 980.99L24.5644 1088.58H24.0828L0 1122.58V1127.15L26.0094 1090.1L330.416 982.512ZM78.9915 -222.777H72.73L25.0461 -206.03H24.5644L0.481648 -172.028V-167.461L26.4911 -204.508L78.9915 -222.777ZM216.745 901.314L368.948 685.63L672.391 578.042H672.873L825.076 362.359L1128.52 254.771H1129L1281.2 39.0876L1584.65 -68.5003H1585.13L1693.5 -222.777H1690.61L1583.68 -71.0377L1280.24 36.5502H1279.76L1127.56 252.234L824.113 359.822H823.631L671.428 575.505L367.985 683.093H367.503L215.3 898.776L1.44496 974.9V976.93L216.745 901.314ZM179.176 874.417L331.379 658.733L634.822 551.145H635.304L787.507 335.462L1090.95 227.874H1091.43L1243.64 12.1907L1547.08 -95.3973H1547.56L1636.18 -222.777H1633.29L1545.15 -97.9347L1241.71 9.65323H1241.23L1089.02 225.337L785.58 332.925H785.099L632.896 548.608L329.453 656.196H328.971L176.768 871.879L0.481648 934.301V936.33L179.176 874.417ZM141.125 847.52L293.328 631.836L596.771 524.248H597.253L749.456 308.565L1052.9 200.977H1053.38L1205.58 -14.7063L1509.03 -122.294H1509.51L1579.35 -222.777H1576.46L1507.58 -124.832L1204.14 -17.2438H1203.66L1050.97 198.44L747.53 306.028H747.048L594.845 522.218L291.402 629.806H290.92L138.717 845.49L0.481648 894.716V896.746L141.125 847.52ZM103.074 1467.67L255.278 1251.99L558.721 1144.4H559.202L711.405 928.718L1014.85 821.13H1015.33L1167.53 605.447L1470.98 497.859H1471.46L1623.66 282.176L1927.1 174.588H1927.59L2079.79 -41.0958L2383.23 -148.684H2383.71L2434.29 -222.777H2431.4L2381.31 -151.729L2077.86 -44.1408H2077.38L1925.18 171.543L1621.73 279.131H1621.25L1469.05 494.814L1165.61 602.402H1165.13L1012.92 818.085L709.479 925.673H708.997L556.794 1142.37L253.351 1249.96H252.869L100.666 1465.64L0.481648 1501.17V1503.2L103.074 1467.67ZM65.0235 1440.78L217.227 1225.09L520.67 1117.5H521.151L673.355 901.821L976.798 794.233H977.279L1129.48 578.55L1432.93 470.962H1433.41L1585.61 255.279L1889.05 147.691H1889.54L2041.74 -67.9928L2345.18 -175.581H2345.66L2377.93 -221.255H2375.04L2344.22 -177.103L2040.78 -69.5153H2040.29L1888.09 146.168L1584.65 253.756H1584.17L1431.96 469.439L1128.52 577.027H1128.04L975.834 792.711L672.391 900.299H671.91L519.706 1115.98L216.263 1223.57H215.782L63.5786 1439.25L1.44496 1461.08V1463.11L65.0235 1440.78ZM179.176 1197.69L482.619 1090.1H483.101L635.304 874.417L938.747 766.829H939.229L1091.43 551.145L1394.87 443.557H1395.36L1547.56 227.874L1851 120.286H1851.48L2003.69 -95.3973L2307.13 -202.985H2307.61L2320.62 -221.255H2317.73L2305.69 -204L2002.24 -96.4123H2001.76L1849.56 119.271L1546.11 226.859H1545.63L1393.43 442.542L1089.99 550.13H1089.51L937.302 765.814L633.859 873.402H633.377L481.174 1089.09L177.731 1196.67H177.249L25.0461 1412.36L0.963315 1420.98V1423.01L26.9727 1413.88L179.176 1197.69ZM406.517 1036.31L558.721 820.623L862.164 713.035H862.645L1014.85 497.351L1318.29 389.763H1318.77L1471.46 173.065L1774.9 65.4772H1775.38L1927.59 -150.206L2131.33 -222.777H2125.06L1925.18 -151.729H1924.7L1772.49 63.9547L1469.05 171.543H1468.57L1317.33 387.226L1013.89 494.814H1013.4L861.2 711.005L557.757 818.593H557.276L405.072 1034.28L101.629 1141.86H101.148L0.963315 1283.96V1288.53L103.074 1143.89L406.517 1036.31ZM179.176 1521.47L331.379 1305.78L634.822 1198.2H635.304L787.507 982.512L1090.95 874.924H1091.43L1243.64 659.241L1547.08 551.653H1547.56L1699.76 335.97L2003.21 228.382H2003.69L2155.41 11.1757L2458.85 -96.4123H2459.33L2548.44 -222.777H2545.55L2457.41 -97.9347L2153.96 9.65323H2153.48L2001.28 225.844L1697.84 333.432H1697.35L1545.15 549.115L1241.71 656.703H1241.23L1089.02 872.387L785.58 979.975H785.099L632.896 1195.66L329.453 1303.25H328.971L176.768 1518.93L0.481648 1581.35V1583.38L179.176 1521.47ZM444.568 1063.2L596.771 847.52L900.214 739.932H900.696L1052.9 524.248L1356.34 416.66H1356.82L1509.03 200.977L1812.47 93.3891H1812.95L1965.16 -122.294L2245.48 -222.777H2239.22L1963.71 -124.832H1963.23L1811.03 90.8517L1507.58 198.44H1507.1L1354.9 414.123L1051.45 521.711H1050.97L898.77 737.394L595.326 844.982H594.845L442.642 1060.67L139.199 1168.25H138.717L0.481648 1364.14V1368.71L140.643 1169.78L444.568 1063.2ZM254.796 928.211L406.999 712.527L710.442 604.939H710.924L863.127 389.256L1166.57 281.668H1167.05L1319.25 65.9846L1622.7 -41.6033H1623.18L1750.34 -222.777H1747.45L1621.25 -44.1408L1317.81 63.4472H1317.33L1165.13 279.638L861.682 387.226H861.2L708.997 602.909L405.554 710.497H405.072L252.869 926.688L0.963315 1016.01V1018.04L254.796 928.211ZM141.125 1494.57L293.328 1278.89L596.771 1171.3H597.253L749.456 955.615L1052.9 848.027H1053.38L1205.58 632.344L1509.03 524.756H1509.51L1661.71 309.073L1965.16 201.485H1965.64L2117.84 -14.1988L2421.28 -121.787H2421.76L2491.6 -222.777H2488.72L2419.84 -124.832L2116.4 -17.2438H2115.91L1963.23 198.44L1659.79 306.028H1659.3L1507.1 521.711L1203.66 629.299H1203.18L1050.97 844.982L747.53 952.57H747.048L594.845 1169.27L291.402 1276.86H290.92L138.717 1492.54L0.481648 1541.77V1543.8L141.125 1494.57ZM65.0235 793.218L217.227 577.535L520.67 469.947H521.151L673.355 254.264L976.798 146.676H977.279L1129.48 -69.0078L1432.93 -177.103H1433.41L1465.68 -222.777H1462.79L1431.96 -178.626L1128.52 -71.0377H1128.04L975.834 144.646L672.391 252.234H671.91L519.706 467.917L216.263 575.505H215.782L63.5786 791.188L1.44496 813.01V815.04L65.0235 793.218ZM141.125 199.962L293.328 -15.7213L596.771 -123.309H597.253L667.093 -222.777H664.203L594.845 -124.832L291.402 -17.2438H290.92L138.717 198.44L0.481648 247.666V249.696L141.125 199.962ZM216.745 253.756L368.948 38.0727L672.391 -69.5153H672.873L781.246 -222.777H777.874L670.946 -71.0377L367.503 36.5502H367.022L214.818 252.234L0.963315 328.357V330.387L216.745 253.756ZM254.796 281.161L406.999 65.4772L710.442 -42.1108H710.924L838.081 -222.777H835.191L708.997 -44.1408L405.554 63.4472H405.072L252.869 279.638L0.963315 368.956V370.986L254.796 281.161ZM179.176 226.859L331.379 11.1757L634.822 -96.4123H635.304L723.929 -222.777H721.039L632.896 -97.9347L329.453 9.65323H328.971L176.768 225.337L0.481648 287.758V289.788L179.176 226.859ZM292.847 308.058L445.05 92.3741L748.493 -15.2138H748.975L894.916 -222.777H892.026L747.048 -16.7363L443.605 90.8517H443.123L290.92 306.535L0.963315 409.556V411.586L292.847 308.058ZM193.144 -222.777H186.882L63.0969 -179.133H62.6152L0.963315 -90.8299V-86.2624L65.0235 -177.611L193.144 -222.777ZM420.967 -222.777H414.706L139.199 -125.339H138.717L0.963315 71.0595V75.627L141.125 -123.309L420.967 -222.777ZM307.296 -222.777H301.035L101.148 -151.729H100.666L0.481648 -9.63142V-5.064L102.593 -149.699L307.296 -222.777ZM330.416 334.954L482.619 119.271L786.062 11.6832H786.544L938.747 -204L990.766 -222.27H984.986L937.302 -205.523H936.82L784.617 10.1607L481.174 117.749H480.692L328.489 333.432L25.0461 441.02H24.5644L0.481648 475.022V479.589L26.4911 442.542L330.416 334.954ZM103.074 173.065L255.278 -42.6183L558.721 -150.206H559.202L610.258 -222.777H607.368L557.276 -151.729L253.833 -44.1408H253.351L101.148 171.543L0.963315 207.067V209.097L103.074 173.065ZM444.568 416.153L596.771 200.47L900.214 92.8816H900.696L1052.9 -122.802L1333.22 -222.777H1326.96L1051.45 -124.832H1050.97L898.77 90.8517L595.326 198.44H594.845L442.642 414.123L139.199 521.711H138.717L0.481648 717.602V722.17L140.643 523.233L444.568 416.153ZM368.467 361.851L520.67 146.168L824.113 38.5802H824.595L976.798 -177.103L1104.92 -222.777H1098.66L975.353 -179.133H974.871L822.668 36.5502L519.225 144.138H518.743L366.54 359.822L63.0969 467.409H62.6152L0.481648 555.205V559.773L65.0235 469.947L368.467 361.851ZM406.517 388.748L559.202 173.065L862.645 65.4772H863.127L1015.33 -150.206L1219.07 -222.777H1212.81L1012.92 -151.729H1012.44L860.237 63.9547L556.794 171.543H556.312L404.109 387.226L100.666 494.814H100.184L0 636.911V641.479L102.111 496.844L406.517 388.748ZM65.0235 146.168L217.227 -69.5153L520.67 -177.103H521.151L553.422 -222.777H550.532L519.706 -178.626L216.263 -71.0377H215.782L63.5786 144.646L1.44496 166.468V168.498L65.0235 146.168ZM179.176 -96.4123L482.619 -204H483.101L496.105 -222.27H493.215L481.174 -205.015L177.731 -97.4272H177.249L25.0461 117.749L0.963315 126.376V128.406L26.9727 119.271L179.176 -96.4123ZM292.847 955.108L445.05 739.424L748.493 631.836H748.975L901.178 416.153L1204.62 308.565H1205.1L1357.31 92.8816L1660.75 -14.7063H1661.23L1807.17 -222.777H1804.28L1659.3 -17.2438L1355.86 90.3442H1355.38L1203.18 306.028L899.733 413.615H899.251L747.048 629.299L443.605 736.887H443.123L290.92 952.57L0.963315 1055.59V1057.62L292.847 955.108Z" fill="#EEDCD0" fill-opacity="0.1"/>
</g>
</svg>
